<svg width="91" height="21" viewBox="0 0 91 21" fill="none" xmlns="http://www.w3.org/2000/svg">
<path d="M10.5 0L12.8574 7.25532H20.4861L14.3143 11.7394L16.6717 18.9947L10.5 14.5106L4.32825 18.9947L6.68565 11.7394L0.513906 7.25532H8.1426L10.5 0Z" fill="#EB9B00"/>
<path d="M37.5 0L39.8574 7.25532H47.4861L41.3143 11.7394L43.6717 18.9947L37.5 14.5106L31.3283 18.9947L33.6857 11.7394L27.5139 7.25532H35.1426L37.5 0Z" fill="#EB9B00"/>
<path d="M57.5 1L59.6329 7.56434H66.535L60.9511 11.6213L63.084 18.1857L57.5 14.1287L51.916 18.1857L54.0489 11.6213L48.465 7.56434H55.3671L57.5 1Z" fill="#EB9B00"/>
<path d="M81.5 1L83.6329 7.56434H90.535L84.9511 11.6213L87.084 18.1857L81.5 14.1287L75.916 18.1857L78.0489 11.6213L72.465 7.56434H79.3671L81.5 1Z" fill="#EB9B00"/>
<path d="M83.5 3L85.1839 8.18237H90.6329L86.2245 11.3853L87.9084 16.5676L83.5 13.3647L79.0916 16.5676L80.7755 11.3853L76.3671 8.18237H81.8161L83.5 3Z" fill="#EB9B00"/>
</svg>
